<svg width="25" height="16" viewBox="0 0 25 16" fill="none" xmlns="http://www.w3.org/2000/svg">
<g clip-path="url(#clip0_35_2508)">
<path d="M7.79324 0.799805C8.47753 0.799805 9.11139 0.853203 9.68987 1.01241C10.2693 1.11822 10.744 1.32983 11.1652 1.59485C11.5875 1.85986 11.9029 2.23068 12.1136 2.7083C12.3242 3.18493 12.43 3.76836 12.43 4.4042C12.43 5.14683 12.2718 5.78168 11.9029 6.25831C11.5875 6.73691 11.0604 7.16015 10.4276 7.47856C11.3235 7.74357 12.0087 8.2202 12.43 8.85604C12.8522 9.49089 13.1153 10.2869 13.1153 11.1888C13.1153 11.9314 12.9561 12.5662 12.693 13.0963C12.43 13.6273 12.0087 14.1039 11.5341 14.4223C11.0179 14.7625 10.4483 15.0137 9.84809 15.164C9.21621 15.3232 8.58432 15.429 7.95146 15.429H0.890015V0.799805H7.79324ZM7.371 6.73592C7.95047 6.73592 8.42512 6.57672 8.79396 6.31269C9.16281 6.04768 9.32102 5.57006 9.32102 4.98663C9.32102 4.66921 9.26763 4.3508 9.16281 4.13918C9.05799 3.92855 8.89878 3.76737 8.68914 3.60915C8.47456 3.48851 8.24317 3.39951 8.00288 3.34414C7.73984 3.29074 7.4768 3.29074 7.16037 3.29074H4.10479V6.73691L7.371 6.73592ZM7.5302 12.9905C7.84565 12.9905 8.16208 12.9371 8.42512 12.8846C8.68914 12.8313 8.95218 12.7264 9.16281 12.5662C9.3764 12.41 9.55637 12.2122 9.68987 11.9838C9.79469 11.7188 9.9005 11.4004 9.9005 11.0295C9.9005 10.2869 9.68987 9.75689 9.26861 9.38607C8.84637 9.06765 8.2669 8.90944 7.58261 8.90944H4.10479V12.9914L7.5302 12.9905ZM17.6996 12.9371C18.1209 13.3613 18.7537 13.5739 19.5963 13.5739C20.1757 13.5739 20.7028 13.4147 21.124 13.1507C21.5463 12.8313 21.8103 12.5138 21.9151 12.1954H24.497C24.0748 13.4671 23.4429 14.3689 22.6004 14.9514C21.7559 15.4814 20.7552 15.7998 19.5438 15.7998C18.7686 15.8008 18.0002 15.6574 17.2774 15.3756C16.6277 15.1333 16.0482 14.7328 15.5914 14.2097C15.1009 13.7232 14.739 13.122 14.5382 12.4604C14.2742 11.7712 14.1684 11.0296 14.1684 10.1811C14.1684 9.38607 14.2742 8.64442 14.5382 7.95519C14.7904 7.28969 15.1662 6.67857 15.6448 6.1525C16.1184 5.67587 16.6979 5.25264 17.3298 4.98663C18.0339 4.70481 18.7854 4.56044 19.5438 4.56241C20.4398 4.56241 21.2299 4.72261 21.9151 5.09343C22.6004 5.46425 23.1265 5.88847 23.5477 6.52431C23.97 7.10774 24.2874 7.79598 24.497 8.53861C24.6019 9.28026 24.6543 10.0229 24.6019 10.8703H16.9619C16.9619 11.7188 17.2774 12.5128 17.6996 12.9371ZM21.0192 7.37275C20.6504 7.00193 20.0709 6.79031 19.3856 6.79031C18.9832 6.78438 18.5856 6.87535 18.2257 7.05533C17.9103 7.21453 17.6996 7.42714 17.489 7.63875C17.2932 7.84246 17.1647 8.10154 17.1202 8.3804C17.0668 8.6464 17.0143 8.85703 17.0143 9.06963H21.7559C21.6511 8.27459 21.3881 7.74456 21.0192 7.37275ZM16.3815 1.80646H22.283V3.23833H16.3835L16.3815 1.80646Z" fill="black"/>
</g>
<defs>
<clipPath id="clip0_35_2508">
<rect width="23.7326" height="15" fill="white" transform="translate(0.890015 0.799805)"/>
</clipPath>
</defs>
</svg>
