<svg width="24" height="24" viewBox="0 0 24 24" fill="none" xmlns="http://www.w3.org/2000/svg">
<g clip-path="url(#clip0_230_190)">
<g clip-path="url(#clip1_230_190)">
<path d="M6.90322 5C7.58751 5 8.22137 5.0534 8.79985 5.2126C9.37933 5.31841 9.85398 5.53003 10.2752 5.79504C10.6975 6.06006 11.0129 6.43088 11.2235 6.9085C11.4342 7.38513 11.54 7.96855 11.54 8.60439C11.54 9.34702 11.3818 9.98187 11.0129 10.4585C10.6975 10.9371 10.1704 11.3603 9.53754 11.6788C10.4334 11.9438 11.1187 12.4204 11.54 13.0562C11.9622 13.6911 12.2253 14.4871 12.2253 15.389C12.2253 16.1316 12.0661 16.7664 11.803 17.2965C11.54 17.8275 11.1187 18.3041 10.6441 18.6225C10.1279 18.9627 9.55831 19.2139 8.95807 19.3642C8.32619 19.5234 7.69431 19.6292 7.06144 19.6292H0V5H6.90322ZM6.48098 10.9361C7.06045 10.9361 7.5351 10.7769 7.90395 10.5129C8.27279 10.2479 8.43101 9.77026 8.43101 9.18683C8.43101 8.8694 8.37761 8.55099 8.27279 8.33938C8.16797 8.12875 8.00877 7.96757 7.79913 7.80935C7.58455 7.68871 7.35315 7.59971 7.11286 7.54433C6.84982 7.49094 6.58679 7.49094 6.27035 7.49094H3.21478V10.9371L6.48098 10.9361ZM6.64019 17.1907C6.95563 17.1907 7.27207 17.1373 7.5351 17.0848C7.79913 17.0314 8.06217 16.9266 8.27279 16.7664C8.48639 16.6102 8.66636 16.4124 8.79985 16.184C8.90467 15.919 9.01048 15.6006 9.01048 15.2297C9.01048 14.4871 8.79985 13.9571 8.3786 13.5863C7.95636 13.2678 7.37689 13.1096 6.6926 13.1096H3.21478V17.1916L6.64019 17.1907ZM16.8096 17.1373C17.2309 17.5615 17.8637 17.7741 18.7062 17.7741C19.2857 17.7741 19.8128 17.6149 20.234 17.3508C20.6563 17.0314 20.9203 16.714 21.0251 16.3956H23.607C23.1848 17.6673 22.5529 18.5691 21.7104 19.1516C20.8659 19.6816 19.8652 20 18.6538 20C17.8786 20.001 17.1102 19.8576 16.3874 19.5758C15.7377 19.3335 15.1582 18.933 14.7014 18.4099C14.2109 17.9234 13.849 17.3222 13.6482 16.6606C13.3842 15.9714 13.2784 15.2297 13.2784 14.3813C13.2784 13.5863 13.3842 12.8446 13.6482 12.1554C13.9004 11.4899 14.2762 10.8788 14.7548 10.3527C15.2284 9.87606 15.8079 9.45283 16.4398 9.18683C17.1438 8.905 17.8954 8.76063 18.6538 8.76261C19.5497 8.76261 20.3398 8.9228 21.0251 9.29363C21.7104 9.66445 22.2365 10.0887 22.6577 10.7245C23.08 11.3079 23.3974 11.9962 23.607 12.7388C23.7118 13.4805 23.7643 14.2231 23.7118 15.0705H16.0719C16.0719 15.919 16.3874 16.713 16.8096 17.1373ZM20.1292 11.5729C19.7604 11.2021 19.1809 10.9905 18.4956 10.9905C18.0932 10.9846 17.6956 11.0755 17.3357 11.2555C17.0202 11.4147 16.8096 11.6273 16.599 11.8389C16.4032 12.0427 16.2746 12.3017 16.2301 12.5806C16.1767 12.8466 16.1243 13.0572 16.1243 13.2698H20.8659C20.7611 12.4748 20.4981 11.9448 20.1292 11.5729ZM15.4915 6.00666H21.393V7.43853H15.4934L15.4915 6.00666Z" fill="white"/>
</g>
</g>
<defs>
<clipPath id="clip0_230_190">
<rect width="24" height="15" fill="white" transform="translate(0 5)"/>
</clipPath>
<clipPath id="clip1_230_190">
<rect width="23.7326" height="15" fill="white" transform="translate(0 5)"/>
</clipPath>
</defs>
</svg>
