<svg width="24" height="25" viewBox="0 0 24 25" fill="none" xmlns="http://www.w3.org/2000/svg">
<path d="M6.25 3.17505C5.38805 3.17505 4.5614 3.51746 3.9519 4.12695C3.34241 4.73644 3 5.5631 3 6.42505V17.925C3 18.787 3.34241 19.6137 3.9519 20.2231C4.5614 20.8326 5.38805 21.175 6.25 21.175H17.75C18.612 21.175 19.4386 20.8326 20.0481 20.2231C20.6576 19.6137 21 18.787 21 17.925V6.42505C21 5.5631 20.6576 4.73644 20.0481 4.12695C19.4386 3.51746 18.612 3.17505 17.75 3.17505H6.25Z" fill="url(#paint0_linear_35_2122)"/>
<path d="M17.28 9.45505L10.526 16.202C10.3854 16.3425 10.1948 16.4214 9.996 16.4214C9.79725 16.4214 9.60662 16.3425 9.466 16.202L6.72 13.455C6.58752 13.3129 6.5154 13.1248 6.51882 12.9305C6.52225 12.7362 6.60096 12.5508 6.73838 12.4134C6.87579 12.276 7.06118 12.1973 7.25548 12.1939C7.44978 12.1904 7.63782 12.2626 7.78 12.395L9.997 14.611L16.22 8.39405C16.2897 8.32444 16.3725 8.26926 16.4635 8.23164C16.5546 8.19403 16.6522 8.17471 16.7507 8.17481C16.8492 8.1749 16.9468 8.1944 17.0378 8.23218C17.1287 8.26997 17.2114 8.32531 17.281 8.39505C17.3506 8.46478 17.4058 8.54754 17.4434 8.63859C17.481 8.72965 17.5003 8.82723 17.5002 8.92575C17.5001 9.02428 17.4806 9.12182 17.4429 9.2128C17.4051 9.30379 17.3497 9.38644 17.28 9.45605" fill="url(#paint1_linear_35_2122)"/>
<defs>
<linearGradient id="paint0_linear_35_2122" x1="3.643" y1="6.55005" x2="16.065" y2="19.456" gradientUnits="userSpaceOnUse">
<stop stop-color="#D204B2"/>
<stop offset="1" stop-color="#8A38F5"/>
</linearGradient>
<linearGradient id="paint1_linear_35_2122" x1="8.616" y1="8.80905" x2="13.467" y2="24.488" gradientUnits="userSpaceOnUse">
<stop stop-color="white"/>
<stop offset="1" stop-color="#B3E0FF"/>
</linearGradient>
</defs>
</svg>
