<svg width="25" height="26" viewBox="0 0 25 26" fill="none" xmlns="http://www.w3.org/2000/svg">
<path d="M12.5 3.13379C10.4913 3.13379 8.52768 3.72944 6.85749 4.84543C5.18731 5.96141 3.88556 7.5476 3.11685 9.40341C2.34815 11.2592 2.14702 13.3013 2.5389 15.2714C2.93079 17.2415 3.89807 19.0512 5.31845 20.4716C6.73883 21.892 8.5485 22.8593 10.5186 23.2511C12.4887 23.643 14.5308 23.4419 16.3866 22.6732C18.2424 21.9045 19.8286 20.6027 20.9446 18.9325C22.0606 17.2624 22.6563 15.2988 22.6563 13.29C22.6534 10.5973 21.5825 8.01568 19.6784 6.11163C17.7744 4.20758 15.1927 3.13663 12.5 3.13379ZM17.9688 14.0713H12.5C12.2928 14.0713 12.0941 13.989 11.9476 13.8425C11.8011 13.696 11.7188 13.4972 11.7188 13.29V7.82129C11.7188 7.61409 11.8011 7.41537 11.9476 7.26886C12.0941 7.12235 12.2928 7.04004 12.5 7.04004C12.7072 7.04004 12.9059 7.12235 13.0524 7.26886C13.1989 7.41537 13.2813 7.61409 13.2813 7.82129V12.5088H17.9688C18.176 12.5088 18.3747 12.5911 18.5212 12.7376C18.6677 12.8841 18.75 13.0828 18.75 13.29C18.75 13.4972 18.6677 13.696 18.5212 13.8425C18.3747 13.989 18.176 14.0713 17.9688 14.0713Z" fill="white"/>
</svg>
