<svg width="93" height="93" viewBox="0 0 93 93" fill="none" xmlns="http://www.w3.org/2000/svg">
<path d="M11.3152 35.2316L2.94509 31.6608L4.11324 28.9226C4.49073 28.0377 5.00336 27.333 5.65115 26.8085C6.30233 26.276 7.02442 25.9527 7.81741 25.8387C8.60243 25.7214 9.40548 25.8378 10.2265 26.1881C11.0396 26.535 11.6795 27.0341 12.146 27.6854C12.6125 28.3367 12.8789 29.0816 12.9451 29.9202C13.0148 30.7508 12.8609 31.6085 12.4834 32.4934L11.3152 35.2316ZM10.319 32.5311L10.6659 31.718C10.8223 31.3513 10.911 30.9887 10.9321 30.6302C10.9451 30.2683 10.8973 29.9276 10.7887 29.608C10.6721 29.285 10.4975 28.9985 10.2649 28.7485C10.0244 28.4951 9.73274 28.2953 9.38996 28.1491C9.04719 28.0029 8.7051 27.9323 8.36371 27.9374C8.01435 27.9392 7.68673 28.0114 7.38085 28.1541C7.06699 28.2935 6.78795 28.4948 6.54372 28.7581C6.29152 29.018 6.0872 29.3313 5.93076 29.698L5.58389 30.5111L10.319 32.5311ZM15.0786 26.9212L7.73693 21.5444L11.2395 16.7618L12.7918 17.8986L10.5258 20.9926L11.8683 21.9758L13.7655 19.3853L15.2653 20.4837L13.3681 23.0742L14.763 24.0958L17.0674 20.9494L18.6196 22.0862L15.0786 26.9212ZM22.1356 18.927C21.8072 19.2227 21.4539 19.4651 21.0758 19.6539C20.6984 19.8305 20.3206 19.955 19.9425 20.0273C19.565 20.0873 19.2149 20.0935 18.8921 20.0459C18.5636 19.9919 18.2814 19.8728 18.0456 19.6887L19.1901 17.8707C19.4291 17.9937 19.6994 18.0477 20.0008 18.0328C20.3029 18.0057 20.5921 17.8735 20.8684 17.6364C21.1383 17.405 21.3021 17.1467 21.36 16.8613C21.4244 16.5701 21.3637 16.3215 21.1782 16.1154C21.0332 15.9544 20.8412 15.8707 20.6022 15.8643C20.3696 15.8521 20.1084 15.9183 19.8186 16.0626L18.6447 16.6824C18.2344 16.9002 17.8225 17.0321 17.409 17.078C17.0019 17.118 16.6115 17.073 16.2378 16.943C15.8648 16.8008 15.5275 16.5622 15.2259 16.2273C14.6401 15.5769 14.4006 14.877 14.5073 14.1278C14.6082 13.3721 15.0515 12.6405 15.8372 11.933C16.2687 11.5444 16.7005 11.2663 17.1327 11.0987C17.5591 10.9246 17.9894 10.852 18.4236 10.8809C18.8643 10.9039 19.3088 11.0285 19.7572 11.2544L18.6398 13.083C18.4317 12.9555 18.1769 12.8992 17.8754 12.9141C17.5804 12.9232 17.2976 13.0496 17.0271 13.2931C16.7566 13.5367 16.5992 13.7893 16.5548 14.0509C16.5169 14.3066 16.6023 14.5504 16.8111 14.7823C16.9561 14.9433 17.1391 15.0234 17.36 15.0227C17.5752 15.0155 17.8122 14.942 18.0712 14.8022L19.245 14.1824C19.9142 13.8247 20.5683 13.6963 21.2074 13.7973C21.8471 13.886 22.3787 14.1654 22.802 14.6355C23.1848 15.0606 23.4127 15.5143 23.4856 15.9968C23.565 16.4735 23.4933 16.9637 23.2706 17.4675C23.042 17.9649 22.6637 18.4514 22.1356 18.927ZM25.6047 15.78L20.654 8.14455L22.4101 7.0059L27.3608 14.6414L25.6047 15.78ZM32.9226 12.322C32.0586 12.682 31.218 12.8163 30.4006 12.725C29.588 12.6223 28.8586 12.3253 28.2126 11.834C27.5633 11.3347 27.062 10.661 26.7086 9.81301C26.3553 8.96501 26.2316 8.13868 26.3376 7.33401C26.4403 6.52135 26.7429 5.79435 27.2456 5.15301C27.7529 4.50034 28.4386 3.99401 29.3026 3.63401C29.8386 3.41067 30.3559 3.289 30.8546 3.269C31.3579 3.23767 31.8303 3.28967 32.2716 3.425C32.7129 3.56033 33.1149 3.759 33.4776 4.021L32.2816 5.646C32.0816 5.504 31.8499 5.39867 31.5866 5.33C31.3313 5.258 31.0709 5.23034 30.8056 5.247C30.5369 5.25567 30.2826 5.31 30.0426 5.41C29.5706 5.60667 29.1956 5.88967 28.9176 6.25901C28.6476 6.62501 28.4903 7.04734 28.4456 7.52601C28.3976 7.99667 28.4786 8.48401 28.6886 8.98801C28.8986 9.49201 29.1853 9.89834 29.5486 10.207C29.9086 10.5077 30.3233 10.6917 30.7926 10.759C31.262 10.8263 31.7446 10.7567 32.2406 10.55C32.6166 10.3933 32.9186 10.183 33.1466 9.919C33.3746 9.655 33.5193 9.36 33.5806 9.034C33.642 8.708 33.6009 8.373 33.4576 8.029L35.1636 6.95199C35.5036 7.76799 35.6279 8.52833 35.5366 9.23299C35.442 9.92966 35.1706 10.5403 34.7226 11.065C34.2746 11.5897 33.6746 12.0087 32.9226 12.322ZM31.6226 9.033L31.0026 7.545L34.7586 5.97999L35.2336 7.11999L34.2986 7.91799L31.6226 9.033ZM37.7719 10.3845L36.6059 1.35948L38.7848 1.07797L43.4542 6.07182L42.7429 0.566577L44.8186 0.298388L45.9847 9.32337L43.9089 9.59156L39.1164 4.45633L39.8477 10.1163L37.7719 10.3845ZM53.7772 10.2862C53.3435 10.2011 52.9376 10.0641 52.5595 9.87513C52.1917 9.67932 51.8654 9.45191 51.5806 9.19291C51.3059 8.92706 51.0908 8.65081 50.9351 8.36413C50.781 8.06895 50.7068 7.77178 50.7125 7.47261L52.8535 7.29648C52.8986 7.56147 53.0177 7.81003 53.2106 8.04218C53.4137 8.26749 53.693 8.41944 54.0485 8.49802C54.3955 8.57493 54.7005 8.55086 54.9635 8.42582C55.235 8.30245 55.3975 8.10469 55.4509 7.83254C55.4926 7.61993 55.4442 7.41614 55.3058 7.22119C55.176 7.0279 54.9663 6.8587 54.6768 6.71359L53.4764 6.14691C53.0559 5.94959 52.7031 5.69933 52.4182 5.39613C52.1417 5.0946 51.9433 4.7554 51.8229 4.37851C51.7128 3.99478 51.701 3.5818 51.7878 3.13957C51.9563 2.28061 52.3722 1.66889 53.0354 1.30443C53.7003 0.931452 54.5516 0.846741 55.5891 1.05029C56.1589 1.16208 56.6406 1.34048 57.0341 1.58549C57.4293 1.82199 57.7457 2.12252 57.9833 2.48708C58.2294 2.85331 58.3967 3.28357 58.4852 3.77785L56.352 3.982C56.329 3.73903 56.2211 3.50147 56.0281 3.26932C55.8437 3.03884 55.5729 2.88856 55.2157 2.81849C54.8585 2.74841 54.562 2.77415 54.3262 2.89569C54.0989 3.0189 53.9552 3.23359 53.8952 3.53975C53.8535 3.75237 53.8992 3.94681 54.0324 4.12309C54.1673 4.29086 54.3684 4.4363 54.6357 4.55939L55.8361 5.12608C56.5239 5.44649 57.0193 5.89254 57.3223 6.46422C57.6354 7.02907 57.7311 7.62191 57.6093 8.24274C57.4991 8.80404 57.2731 9.25868 56.931 9.60668C56.5974 9.95634 56.1623 10.1933 55.6257 10.3177C55.0907 10.4335 54.4746 10.423 53.7772 10.2862ZM58.3788 11.1747L61.5425 2.64242L63.505 3.37009L60.3412 11.9024L58.3788 11.1747ZM63.6593 13.6113L67.1789 7.35778L64.8678 6.05704L65.8115 4.38036L72.2463 8.00202L71.3027 9.6787L68.9916 8.37796L65.4719 14.6315L63.6593 13.6113ZM68.6005 16.6005L74.5961 9.75482L79.0555 13.6605L77.7879 15.1079L74.9029 12.5812L73.8066 13.833L76.2222 15.9485L74.9974 17.347L72.5818 15.2314L71.4427 16.5321L74.3765 19.1016L73.1089 20.549L68.6005 16.6005ZM75.9415 24.3327C75.6764 23.979 75.4667 23.6055 75.3125 23.212C75.1704 22.8202 75.0803 22.4328 75.0423 22.0497C75.0163 21.6684 75.0415 21.3191 75.1178 21.002C75.2011 20.6796 75.345 20.4092 75.5495 20.1908L77.2576 21.4937C77.1137 21.7207 77.0356 21.985 77.0234 22.2866C77.0234 22.59 77.1291 22.8898 77.3405 23.1863C77.5467 23.4758 77.7894 23.6621 78.0684 23.7454C78.3527 23.8356 78.6057 23.7975 78.8276 23.6311C79.001 23.5011 79.1016 23.3174 79.1293 23.0799C79.1623 22.8494 79.1199 22.5833 79.002 22.2817L78.49 21.057C78.3098 20.6289 78.2154 20.2068 78.2068 19.7908C78.2034 19.3817 78.2832 18.997 78.4462 18.6364C78.6213 18.2777 78.8891 17.9631 79.2497 17.6928C79.9501 17.1677 80.6686 16.9918 81.4052 17.1653C82.1488 17.3335 82.8377 17.8406 83.472 18.6866C83.8203 19.1512 84.0586 19.6062 84.1868 20.0517C84.3219 20.492 84.3556 20.9271 84.288 21.3569C84.2255 21.7937 84.0616 22.2253 83.7964 22.6516L82.0754 21.3748C82.221 21.1789 82.2999 20.9302 82.3121 20.6286C82.3295 20.334 82.229 20.041 82.0106 19.7498C81.7923 19.4585 81.5548 19.2791 81.2983 19.2115C81.047 19.1508 80.7965 19.214 80.5469 19.4012C80.3735 19.5311 80.2773 19.7062 80.2582 19.9263C80.246 20.1412 80.298 20.3839 80.4141 20.6543L80.9261 21.879C81.2224 22.5776 81.2916 23.2406 81.1338 23.868C80.9881 24.4972 80.6622 25.0016 80.156 25.3811C79.6983 25.7242 79.226 25.9105 78.7389 25.9399C78.257 25.9762 77.7752 25.8609 77.2933 25.5939C76.8185 25.3217 76.3678 24.9013 75.9415 24.3327ZM80.1159 30.796L88.638 27.6047L89.372 29.5648L82.6517 32.0813L84.0103 35.7093L82.2085 36.384L80.1159 30.796ZM82.4709 37.456L91.3701 35.5548L91.8073 37.6016L82.9082 39.5028L82.4709 37.456ZM85.0899 42.3864L87.8794 42.1822L92.4021 46.0524L92.5001 48.7807L85.0899 42.3864ZM83.1238 41.2472L92.2179 40.9207L92.2926 42.9994L83.1984 43.3258L83.1238 41.2472ZM83.3178 46.6517L87.8146 42.913L89.1043 44.4147L83.4106 49.237L83.3178 46.6517ZM83.2503 50.205L92.1926 51.8917L91.0938 57.717L89.2032 57.3604L89.914 53.5919L88.2788 53.2834L87.6837 56.4388L85.8569 56.0942L86.4521 52.9389L84.753 52.6184L84.0301 56.4508L82.1395 56.0942L83.2503 50.205ZM77.5396 66.01L87.1554 67.4059L86.154 69.229L76.4756 67.947L77.5396 66.01ZM80.9569 59.7888L87.2305 67.2691L86.2291 69.0922L79.8929 61.7258L80.9569 59.7888ZM81.6712 62.0797L83.2892 62.9684L80.4039 68.2211L78.7859 67.3324L81.6712 62.0797ZM73.8909 71.0028L80.1032 77.6525L77.4909 80.093C77.0096 80.5427 76.4904 80.8439 75.9333 80.9966C75.3822 81.1557 74.8424 81.1619 74.3139 81.0151C73.785 80.8806 73.3105 80.5886 72.8904 80.1389C72.4822 79.7019 72.2199 79.2117 72.1035 78.6681C71.9866 78.1368 72.0202 77.6014 72.2041 77.0619C72.388 76.5225 72.7174 76.0309 73.1924 75.5871L74.3228 74.531L72.3615 72.4317L73.8909 71.0028ZM75.6363 75.937L74.5438 76.9576C74.2715 77.212 74.127 77.4952 74.1102 77.8074C74.0994 78.1259 74.2153 78.4149 74.4579 78.6746C74.7004 78.9342 74.9843 79.0604 75.3096 79.0531C75.6344 79.058 75.9393 78.9273 76.2243 78.6611L77.2692 77.6849L75.6363 75.937ZM67.9492 76.2846L72.5262 84.1497L69.4364 85.9479C68.8671 86.2791 68.2961 86.461 67.7233 86.4935C67.155 86.5334 66.6317 86.4268 66.1535 86.1737C65.6721 85.9324 65.2832 85.5571 64.9868 85.0477C64.6904 84.5383 64.554 84.011 64.5777 83.4658C64.6013 82.9206 64.7725 82.4049 65.0911 81.9186C65.4067 81.4442 65.8528 81.0392 66.4296 80.7035L67.6768 79.9777L66.1402 77.3373L67.9492 76.2846ZM63.6796 78.7692L67.2726 80.8597L66.495 82.6509L61.6121 79.9723L63.6796 78.7692ZM68.6445 81.6407L67.4198 82.3534C67.2101 82.4754 67.0468 82.6256 66.9299 82.8039C66.8131 82.9822 66.7511 83.1687 66.7441 83.3633C66.7339 83.5698 66.7811 83.7629 66.8857 83.9427C67.047 84.2198 67.2848 84.3873 67.5992 84.445C67.906 84.5071 68.228 84.44 68.5651 84.2439L69.7561 83.5508L68.6445 81.6407ZM56.3526 81.35C57.2542 81.0982 58.1049 81.0676 58.905 81.2581C59.7074 81.457 60.3991 81.8397 60.9803 82.4063C61.5637 82.9812 61.9778 83.7069 62.2226 84.5833C62.4697 85.4682 62.4915 86.3034 62.2879 87.0891C62.0868 87.8831 61.6975 88.5677 61.1203 89.1428C60.537 89.7286 59.7988 90.1462 58.9056 90.3956C58.0125 90.6451 57.1689 90.6692 56.3748 90.468C55.5748 90.2775 54.883 89.8948 54.2996 89.3198C53.7184 88.7533 53.3043 88.0276 53.0572 87.1427C52.8125 86.2663 52.7907 85.431 52.9919 84.637C53.187 83.8536 53.5721 83.1702 54.147 82.5868C54.7243 82.0116 55.4595 81.5994 56.3526 81.35ZM56.8701 83.2031C56.3776 83.3406 55.975 83.5745 55.6623 83.9048C55.3496 84.235 55.1449 84.6296 55.0481 85.0886C54.9536 85.5559 54.9787 86.0483 55.1232 86.5658C55.27 87.0917 55.5079 87.5247 55.8368 87.8648C56.1681 88.2132 56.553 88.4476 56.9916 88.5681C57.4325 88.6969 57.8992 88.6926 58.3916 88.5551C58.8841 88.4175 59.2856 88.1795 59.5959 87.8408C59.9086 87.5106 60.1164 87.1106 60.2192 86.641C60.3243 86.1797 60.3035 85.6861 60.1566 85.1603C60.0121 84.6427 59.7742 84.2097 59.443 83.8613C59.1141 83.5213 58.7261 83.2922 58.2792 83.174C57.8323 83.0559 57.3626 83.0655 56.8701 83.2031ZM40.3223 82.152L36.7034 90.874L34.5875 90.6126L38.3483 81.908L40.3223 82.152ZM45.7282 82.8199L47.2442 92.1764L45.1283 91.915L43.7542 82.576L45.7282 82.8199ZM45.4443 82.7848L41.9545 91.5228L40.0966 91.2933L43.5736 82.5537L45.4443 82.7848ZM40.5158 82.1759L41.748 91.4973L39.8902 91.2678L38.5418 81.932L40.5158 82.1759ZM34.8459 81.2743L31.7212 89.8211L29.7555 89.1024L32.8801 80.5557L34.8459 81.2743ZM29.5565 78.8579L26.0555 85.122L28.3705 86.4158L27.4318 88.0953L20.9862 84.4928L21.9249 82.8133L24.2399 84.1072L27.7409 77.8432L29.5565 78.8579ZM20.3 71.8848L14.1359 78.5792L12.5962 77.1615L18.7602 70.4671L20.3 71.8848ZM24.6226 75.865L18.4498 82.569L16.9101 81.1512L23.0829 74.4473L24.6226 75.865ZM21.0404 77.5676L19.7371 78.983L15.6822 75.2494L16.9855 73.834L21.0404 77.5676ZM15.8886 66.6754L7.74113 70.7286L6.71624 68.6685L8.85167 64.9054L4.55645 64.327L3.53156 62.2669L11.679 58.2136L12.6113 60.0876L7.37361 62.6932L11.9885 63.3304L9.7187 67.4071L14.9564 64.8014L15.8886 66.6754ZM11.123 56.5934L2.21472 58.4516L1.00425 52.6485L2.88771 52.2556L3.6708 56.0098L5.29974 55.67L4.64407 52.5267L6.4639 52.1471L7.11957 55.2904L8.81214 54.9374L8.01578 51.1195L9.89925 50.7267L11.123 56.5934ZM9.67651 46.0838L0.637143 45.0351L0.890339 42.8527L6.8643 39.528L1.35029 38.8883L1.5915 36.8092L10.6309 37.858L10.3897 39.937L4.24875 43.347L9.91772 44.0047L9.67651 46.0838Z" fill="#D204B2"/>
</svg>
