<svg width="26" height="26" viewBox="0 0 26 26" fill="none" xmlns="http://www.w3.org/2000/svg">
<path d="M22.9963 21.1025C22.9963 21.3097 22.914 21.5085 22.7675 21.655C22.6209 21.8015 22.4222 21.8838 22.215 21.8838H3.46503C3.25783 21.8838 3.05911 21.8015 2.9126 21.655C2.76609 21.5085 2.68378 21.3097 2.68378 21.1025C2.68378 20.8953 2.76609 20.6966 2.9126 20.5501C3.05911 20.4036 3.25783 20.3213 3.46503 20.3213H4.24628V14.0713C4.24628 13.8641 4.32859 13.6654 4.4751 13.5189C4.62161 13.3723 4.82033 13.29 5.02753 13.29H7.37128C7.57848 13.29 7.77719 13.3723 7.9237 13.5189C8.07022 13.6654 8.15253 13.8641 8.15253 14.0713V20.3213H9.71503V9.38379C9.71503 9.17659 9.79734 8.97787 9.94385 8.83136C10.0904 8.68485 10.2891 8.60254 10.4963 8.60254H13.6213C13.8285 8.60254 14.0272 8.68485 14.1737 8.83136C14.3202 8.97787 14.4025 9.17659 14.4025 9.38379V20.3213H15.965V4.69629C15.965 4.48909 16.0473 4.29037 16.1938 4.14386C16.3404 3.99735 16.5391 3.91504 16.7463 3.91504H20.6525C20.8597 3.91504 21.0584 3.99735 21.205 4.14386C21.3515 4.29037 21.4338 4.48909 21.4338 4.69629V20.3213H22.215C22.4222 20.3213 22.6209 20.4036 22.7675 20.5501C22.914 20.6966 22.9963 20.8953 22.9963 21.1025Z" fill="white"/>
</svg>
