<svg width="24" height="24" viewBox="0 0 24 24" fill="none" xmlns="http://www.w3.org/2000/svg">
<g clip-path="url(#clip0_230_185)">
<g clip-path="url(#clip1_230_185)">
<path d="M6.197 3.1C6.197 4.259 5.257 5.198 4.098 5.197C2.939 5.197 1.999 4.257 2 3.098C2.001 1.939 2.941 0.999001 4.1 1C5.259 1.001 6.198 1.941 6.197 3.1ZM6.26 6.751H2.063V19.889H6.26V6.751ZM12.892 6.751H8.716V19.889H12.85V12.995C12.85 9.154 17.855 8.797 17.855 12.995V19.889H22V11.568C22 5.093 14.592 5.335 12.85 8.514L12.892 6.751Z" fill="white"/>
</g>
</g>
<defs>
<clipPath id="clip0_230_185">
<rect width="20" height="19" fill="white" transform="translate(2 1)"/>
</clipPath>
<clipPath id="clip1_230_185">
<rect width="20" height="18.889" fill="white" transform="translate(2 1)"/>
</clipPath>
</defs>
</svg>
