<svg width="21" height="20" viewBox="0 0 21 20" fill="none" xmlns="http://www.w3.org/2000/svg">
<g clip-path="url(#clip0_35_2503)">
<path d="M5.08702 2.89981C5.08702 4.05881 4.14702 4.99781 2.98802 4.99681C1.82902 4.99681 0.889015 4.05681 0.890015 2.89781C0.891015 1.73881 1.83102 0.798805 2.99002 0.799805C4.14902 0.800805 5.08802 1.74081 5.08702 2.89981ZM5.15002 6.55081H0.953015V19.6888H5.15002V6.55081ZM11.782 6.55081H7.60602V19.6888H11.74V12.7948C11.74 8.95381 16.745 8.59681 16.745 12.7948V19.6888H20.89V11.3678C20.89 4.89281 13.482 5.13481 11.74 8.31381L11.782 6.55081Z" fill="black"/>
</g>
<defs>
<clipPath id="clip0_35_2503">
<rect width="20" height="18.889" fill="white" transform="translate(0.890015 0.799805)"/>
</clipPath>
</defs>
</svg>
