<svg width="18" height="19" viewBox="0 0 18 19" fill="none" xmlns="http://www.w3.org/2000/svg">
<path d="M16.148 5.56039L7.14798 14.5604C7.09574 14.6127 7.0337 14.6542 6.96541 14.6825C6.89713 14.7108 6.82393 14.7254 6.75001 14.7254C6.67609 14.7254 6.60289 14.7108 6.5346 14.6825C6.46632 14.6542 6.40428 14.6127 6.35204 14.5604L2.41454 10.6229C2.30899 10.5173 2.24969 10.3742 2.24969 10.2249C2.24969 10.0757 2.30899 9.9325 2.41454 9.82695C2.52009 9.72141 2.66324 9.66211 2.81251 9.66211C2.96177 9.66211 3.10493 9.72141 3.21048 9.82695L6.75001 13.3672L15.352 4.76445C15.4576 4.65891 15.6007 4.59961 15.75 4.59961C15.8993 4.59961 16.0424 4.65891 16.148 4.76445C16.2535 4.87 16.3128 5.01315 16.3128 5.16242C16.3128 5.31169 16.2535 5.45484 16.148 5.56039Z" fill="#FCFCFA"/>
</svg>
