<svg width="16" height="16" viewBox="0 0 16 16" fill="none" xmlns="http://www.w3.org/2000/svg">
<path d="M12.6875 8.83752C12.6887 9.02865 12.6306 9.21544 12.5213 9.37221C12.4119 9.52897 12.2567 9.648 12.077 9.71292L9.05469 10.8297L7.94141 13.8543C7.87548 14.0334 7.7562 14.188 7.59967 14.2972C7.44313 14.4064 7.25687 14.4649 7.06602 14.4649C6.87516 14.4649 6.68891 14.4064 6.53237 14.2972C6.37583 14.188 6.25655 14.0334 6.19063 13.8543L5.07031 10.8297L2.0457 9.71643C1.8666 9.6505 1.71203 9.53123 1.60284 9.37469C1.49366 9.21815 1.43512 9.03189 1.43512 8.84104C1.43512 8.65019 1.49366 8.46393 1.60284 8.30739C1.71203 8.15086 1.8666 8.03158 2.0457 7.96565L5.07031 6.84534L6.1836 3.82073C6.24952 3.64162 6.3688 3.48705 6.52534 3.37787C6.68187 3.26868 6.86813 3.21014 7.05899 3.21014C7.24984 3.21014 7.4361 3.26868 7.59264 3.37787C7.74917 3.48705 7.86845 3.64162 7.93438 3.82073L9.05469 6.84534L12.0793 7.95862C12.2592 8.02412 12.4143 8.14385 12.5233 8.30129C12.6322 8.45872 12.6896 8.64609 12.6875 8.83752ZM9.40625 3.21252H10.3438V4.15002C10.3438 4.27434 10.3931 4.39357 10.481 4.48148C10.569 4.56939 10.6882 4.61877 10.8125 4.61877C10.9368 4.61877 11.0561 4.56939 11.144 4.48148C11.2319 4.39357 11.2813 4.27434 11.2813 4.15002V3.21252H12.2188C12.3431 3.21252 12.4623 3.16314 12.5502 3.07523C12.6381 2.98732 12.6875 2.86809 12.6875 2.74377C12.6875 2.61945 12.6381 2.50023 12.5502 2.41232C12.4623 2.32441 12.3431 2.27502 12.2188 2.27502H11.2813V1.33752C11.2813 1.2132 11.2319 1.09398 11.144 1.00607C11.0561 0.91816 10.9368 0.868774 10.8125 0.868774C10.6882 0.868774 10.569 0.91816 10.481 1.00607C10.3931 1.09398 10.3438 1.2132 10.3438 1.33752V2.27502H9.40625C9.28193 2.27502 9.1627 2.32441 9.0748 2.41232C8.98689 2.50023 8.9375 2.61945 8.9375 2.74377C8.9375 2.86809 8.98689 2.98732 9.0748 3.07523C9.1627 3.16314 9.28193 3.21252 9.40625 3.21252ZM14.5625 5.08752H14.0938V4.61877C14.0938 4.49445 14.0444 4.37523 13.9565 4.28732C13.8686 4.19941 13.7493 4.15002 13.625 4.15002C13.5007 4.15002 13.3815 4.19941 13.2935 4.28732C13.2056 4.37523 13.1563 4.49445 13.1563 4.61877V5.08752H12.6875C12.5632 5.08752 12.444 5.13691 12.356 5.22482C12.2681 5.31273 12.2188 5.43195 12.2188 5.55627C12.2188 5.68059 12.2681 5.79982 12.356 5.88773C12.444 5.97564 12.5632 6.02502 12.6875 6.02502H13.1563V6.49377C13.1563 6.61809 13.2056 6.73732 13.2935 6.82523C13.3815 6.91314 13.5007 6.96252 13.625 6.96252C13.7493 6.96252 13.8686 6.91314 13.9565 6.82523C14.0444 6.73732 14.0938 6.61809 14.0938 6.49377V6.02502H14.5625C14.6868 6.02502 14.8061 5.97564 14.894 5.88773C14.9819 5.79982 15.0313 5.68059 15.0313 5.55627C15.0313 5.43195 14.9819 5.31273 14.894 5.22482C14.8061 5.13691 14.6868 5.08752 14.5625 5.08752Z" fill="#814AC8"/>
</svg>
